<svg xmlns="http://www.w3.org/2000/svg" width="189" height="530" viewBox="0 0 189 530"><g fill="none"><path fill="#5EBA7D" d="M48 280.8v7.6l8.5 7.6L73 281.2V273l-16.5 14.9M22 324v3l4 4 7-6v-4l-7 6"/><path fill="#C9CBCF" d="M8 280.8v7.6l8.6 7.6L33 281.2V273l-16.4 14.9"/><path fill="#F48024" d="M45 191h29l-14.4-15"/><path fill="#C9CBCF" d="M5 191h29l-14.5-15"/><path fill="#F48024" d="M59.6 243L74 228H45M6.5 322.5L0 329h13"/><path fill="#C9CBCF" d="M7.5 386.5L0 380v13m55 80.5l-8-6.5v13m-40.5-6.5L14 480v-13m12.5-77.5L33 383H20"/><path fill="#C9CBCF" d="M6.5 341.5L0 348h13"/><path fill="#C9CBCF" d="M19.5 243L34 228H5"/><path fill="#C9CBCF" d="M19.5 120l2.9 9.2H32l-7.7 5.6 3 9.2-7.8-5.7-7.8 5.7 3-9.2-7.7-5.6h9.6"/><path fill="#FFD83D" d="M59.6 120l2.9 9.2h9.6l-7.7 5.6 3 9.2-7.8-5.7-7.8 5.7 3-9.2-7.7-5.6h9.6"/><path fill="#EAC328" d="M59.6 123.3l2.2 6.9H69l-5.8 4.2 2.3 6.9-5.9-4.3-5.9 4.3 2.3-6.9-5.8-4.2h7.3l2.1-6.9zm0-3.3l-2.9 9.2h-9.6l7.7 5.6-3 9.2 7.8-5.7 7.8 5.7-3-9.2 7.7-5.6h-9.6l-2.9-9.2z"/><circle cx="65" cy="405" r="3" fill="#D1A684"/><circle cx="85" cy="405" r="3" fill="#B4B8BC"/><circle cx="105" cy="405" r="3" fill="#FFCC01"/><path fill="#93999F" d="M47 367h2v2h-2m3 1h2v2h-2m6-2h2v2h-2m6-2h2v2h-2m6-2h2v2h-2m-15-5h2v2h-2m6-2h2v2h-2m6-2h2v2h-2m6-2h2v2h-2"/><path fill="#C9CBCF" d="M0 400v31h31v-31"/><path fill="#FFF" d="M20 419a14.09 14.09 0 0 1 8 12H3a14.1 14.1 0 0 1 8-12v-.5a7.49 7.49 0 0 1 4.5-13.5 7.5 7.5 0 0 1 4.5 13.5v.5z"/><path fill="#C9CBCF" d="M60 340h2v14h-2"/><path fill="#C9CBCF" d="M63 341h10v8H63"/><path fill="#DD3C4C" d="M60 320h2v14h-2"/><path fill="#EEC4C8" d="M63 321h10v8H63"/><path fill="#FE6502" d="M80 320h14v14H80"/><path fill="#FFF" d="M84 329c-1.36 0-2 .64-2 2 0 .36.64 1 2 1 .36 0 1-.64 1-1 0-1.36-.64-2-1-2zm-2-4v2a5.12 5.12 0 0 1 5 5h2c.1-3.81-2.99-6.9-7-7zm0-3v2a7.9 7.9 0 0 1 8 8h2c0-5.48-4.52-10-10-10z"/><path fill="#6C737A" d="M22.6 347.1l-.7 3.2 3.2-.7m-1.67-3.2l3.6-3.6 2.48 2.47-3.6 3.6m3.19-7.57c-.4 0-.8.1-1.1.4l-.7.7 2.5 2.5.7-.7c.2-.3.4-.7.4-1.1 0-1-.8-1.8-1.8-1.8z"/><circle cx="107" cy="452" r="7" fill="#C91D2E"/><path fill="#FFF" d="M110.2 453.7l-1.9-1.9 1.9-1.9v-.3l-.9-.8h-.3l-2 2-1.8-2h-.3l-.9.8v.3l1.9 1.9-1.9 1.9v.3l.9.9h.3l1.9-1.9 1.9 1.9h.3l.9-.9"/><circle cx="47" cy="347" r="7" fill="#C91D2E"/><path fill="#FFF" d="M50.2 348.7l-1.9-1.9 1.9-1.9v-.3l-.9-.8H49l-2 2-1.8-2h-.3l-.9.8v.3l1.9 1.9-1.9 1.9v.3l.9.9h.3l1.9-1.9 1.9 1.9h.3l.9-.9"/><circle cx="47" cy="326" r="7" fill="#C9CBCF"/><path fill="#222426" d="M33.9 518.6l-1.7-.2c-1.3-.1-1.9-.6-1.9-1.6 0-1.1.8-1.8 2.4-1.8 1.1 0 2.1.3 2.8.8l1-1c-1-.8-2.3-1.1-3.8-1.1-2.3 0-3.9 1.2-3.9 3.1 0 1.8 1.1 2.7 3.2 2.9l1.8.2c1.2.1 1.8.6 1.8 1.6 0 1.3-1.1 1.9-2.8 1.9-1.3 0-2.5-.3-3.3-1.2l-1 1c1.2 1.1 2.6 1.5 4.4 1.5 2.6 0 4.3-1.2 4.3-3.2-.2-2-1.5-2.7-3.3-2.9zm13.3-4.8c-1.7 0-2.8.3-3.7 1.5l1 1c.6-.9 1.3-1.2 2.7-1.2 1.9 0 2.7.8 2.7 2.3v1h-3.2c-2.4 0-3.7 1.2-3.7 3.1 0 .8.3 1.6.8 2.2.7.7 1.5 1 3 1 1.4 0 2.2-.3 3.1-1.1v1h1.6v-7.2c-.1-2.4-1.5-3.6-4.3-3.6zm2.7 7c0 .9-.2 1.5-.5 1.8-.7.6-1.5.7-2.4.7-1.7 0-2.4-.6-2.4-1.8 0-1.2.8-1.9 2.4-1.9h3l-.1 1.2zm7.6-5.6c1 0 1.6.3 2.4 1.2l1-1c-1.1-1.2-2-1.6-3.5-1.6-2.7 0-4.7 1.8-4.7 5.5 0 3.6 2 5.5 4.7 5.5 1.5 0 2.4-.4 3.5-1.6l-1.1-1c-.8.9-1.4 1.2-2.4 1.2s-1.9-.4-2.5-1.2c-.5-.7-.7-1.5-.7-2.9 0-1.3.2-2.2.7-2.9.7-.8 1.6-1.2 2.6-1.2zm13.4-1.3H69l-4.8 4.7v-9.5h-1.6v15.4h1.6v-3.9l1.9-1.9 3.6 5.8h1.9l-4.4-6.9 3.7-3.7zm7.3-.5c-1.6 0-2.7.6-3.4 1.4-1 1-1.3 2.3-1.3 4.3s.3 3.3 1.3 4.3c.7.7 1.8 1.4 3.4 1.4 1.6 0 2.8-.6 3.4-1.4 1-1 1.3-2.3 1.3-4.3s-.3-3.3-1.3-4.3c-.6-.8-1.7-1.4-3.4-1.4zm1.3 8.3c-.3.3-.7.5-1.3.5-.6 0-1-.2-1.3-.5-.6-.6-.6-1.6-.6-2.7 0-1.2.1-2.1.6-2.7.3-.3.7-.5 1.3-.5.6 0 1 .2 1.3.5.6.6.6 1.5.6 2.7.1 1.2 0 2.2-.6 2.7zm10.8-8.2l-2.2 6.9-2.3-6.9h-2.9l4.1 11.1h2.2l4.1-11.1h-3zm7.6-.1c-2.9 0-4.8 2-4.8 5.7 0 4.5 2.5 5.7 5.1 5.7 2 0 3.1-.6 4.2-1.7l-1.7-1.6c-.7.7-1.3 1-2.5 1-1.6 0-2.4-1-2.4-2.5h6.9v-1.2c0-3.2-1.7-5.4-4.8-5.4zm-2.1 4.6c0-.5.1-.8.3-1.2.3-.7.9-1.2 1.9-1.2.9 0 1.6.5 1.9 1.2.2.4.2.7.3 1.2h-4.4zm11-3.4v-1.1h-2.7v11.1h2.8v-6.7c0-1.4.9-2 1.8-2 .7 0 1 .2 1.5.7l2.1-2.1c-.8-.8-1.5-1-2.6-1-1.3-.1-2.3.4-2.9 1.1zm6.3-2.3v12.3h2.8v-8.8h2v-2.1h-2v-1.2c0-.6.3-1 1-1h1.1v-2.3h-1.6c-2.3 0-3.3 1.6-3.3 3.1zm16.2 1.1c-1.6 0-2.7.6-3.4 1.4-1 1-1.3 2.3-1.3 4.3s.3 3.3 1.3 4.3c.7.7 1.8 1.4 3.4 1.4 1.6 0 2.8-.6 3.4-1.4 1-1 1.3-2.3 1.3-4.3s-.3-3.3-1.3-4.3c-.6-.8-1.8-1.4-3.4-1.4zm1.3 8.3c-.3.3-.7.5-1.3.5-.6 0-1-.2-1.3-.5-.6-.6-.6-1.6-.6-2.7 0-1.2.1-2.1.6-2.7.3-.3.7-.5 1.3-.5.6 0 1 .2 1.3.5.6.6.6 1.5.6 2.7 0 1.2 0 2.2-.6 2.7zm16.5-8.2l-1.8 6.9-2.3-6.9h-2l-2.3 6.9-1.8-6.9H134l3.4 11.1h2.3l2.3-7 2.3 7h2.3l3.4-11.1h-2.9zm-25.1 7.7v-12.1h-2.8v12.3c0 1.6 1 3.2 3.2 3.2h1.6v-2.3h-1c-.7 0-1-.4-1-1.1zm-80.7-5.6l1.4-1.4h-3v-3.5h-1.6v11.1c0 1.6.9 2.9 2.7 2.9h1.1v-1.3h-.8c-1 0-1.5-.6-1.5-1.6v-6.1h1.7v-.1z"/><path fill="#BCBBBB" d="M21 527v-8h3v11H0v-11h3v8"/><path fill="#F48024" d="M5.4 519.1l13.56 1.96.17-2.38-13.26-2.55-.47 2.97zm1.8-6.8l12 5.6 1.1-2.4-12-5.6-1.1 2.4zm3.4-5.9l10.2 8.5 1.7-2-10.2-8.5-1.7 2zm6.5-6.2l-2.1 1.6 7.9 10.6 2.1-1.6-7.9-10.6zM5 525h14v-3H5v3z"/><path fill="#FFF" d="M50.2 327.7l-1.9-1.9 1.9-1.9v-.3l-.9-.8H49l-2 2-1.8-2h-.3l-.9.8v.3l1.9 1.9-1.9 1.9v.3l.9.9h.3l1.9-1.9 1.9 1.9h.3l.9-.9"/><path fill="#222426" d="M41.8 31.4l-2.2-.2c-1.7-.1-2.3-.8-2.3-2 0-1.4 1-2.2 3-2.2 1.3-.1 2.6.3 3.6 1.1l1.3-1.3c-1.4-1-3.1-1.5-4.8-1.4-2.9 0-4.9 1.5-4.9 3.9 0 2.2 1.4 3.4 4 3.6l2.2.2c1.6.1 2.2.8 2.2 2 0 1.6-1.4 2.4-3.6 2.4-1.6.1-3.1-.5-4.2-1.6l-1.3 1.3c1.5 1.4 3.5 2 5.5 1.9 3.2 0 5.5-1.5 5.5-4.1 0-2.6-1.6-3.4-4-3.6zm16.8-6.1c-2.2 0-3.5.4-4.7 1.9l1.3 1.3c.8-1.1 2.1-1.7 3.4-1.5 2.5 0 3.4 1 3.4 2.9v1.3h-4c-3 0-4.6 1.5-4.6 3.9 0 1 .3 2 1 2.7.8.9 1.9 1.2 3.8 1.2 1.4.1 2.9-.4 3.9-1.4v1.3h2v-9.1c-.1-2.9-1.9-4.5-5.5-4.5zm3.4 8.9c.1.8-.1 1.7-.7 2.3a4 4 0 0 1-3 .9c-2.1 0-3.1-.7-3.1-2.3 0-1.6 1-2.4 3-2.4H62v1.5zm9.7-7.1c1.2 0 2.4.5 3.1 1.5l1.3-1.3a5.4 5.4 0 0 0-4.4-2c-3.4 0-5.9 2.3-5.9 6.9 0 4.6 2.6 6.9 5.9 6.9 1.7.1 3.3-.7 4.4-2l-1.3-1.3c-.7 1-1.9 1.5-3.1 1.5-1.2.1-2.4-.5-3.1-1.5-.7-1.1-1-2.3-.9-3.6-.1-1.3.2-2.5.9-3.6.7-1 1.9-1.6 3.1-1.5zm16.8-1.6h-2.4L80 31.4V19.5h-2v19.4h2V34l2.4-2.4 4.5 7.3h2.4l-5.6-8.6 4.8-4.8zm9.2-.7c-1.6-.1-3.2.5-4.3 1.7-1.3 1.3-1.6 2.9-1.6 5.4 0 2.5.3 4.1 1.6 5.4 1.1 1.1 2.7 1.7 4.3 1.7 1.6.1 3.2-.5 4.3-1.7 1.3-1.3 1.6-2.9 1.6-5.4 0-2.5-.3-4.1-1.6-5.4a5.38 5.38 0 0 0-4.3-1.7zm1.7 10.5c-.9.8-2.3.8-3.2 0-.7-.7-.8-2-.8-3.4s.1-2.7.8-3.4c.9-.8 2.3-.8 3.2 0 .7.7.8 1.9.8 3.4s-.1 2.7-.8 3.4zM113 24.9l-2.8 8.6-2.8-8.6h-3.7l5.2 14h2.7l5.1-14H113zm9.6-.1c-3.6 0-6.1 2.6-6.1 7.1 0 5.7 3.2 7.2 6.5 7.2 2 .1 4-.7 5.3-2.2l-2.1-2.1c-.8.9-2 1.4-3.2 1.3-1.6.1-3-1.1-3.1-2.7V33h8.7v-1.6c.1-3.8-2.1-6.6-6-6.6zm-2.7 5.8c0-.5.1-1 .3-1.5.4-.9 1.3-1.4 2.3-1.4 1-.1 1.9.5 2.3 1.4.2.5.3 1 .3 1.5h-5.2zm13.9-4.3V25h-3.4v14h3.5v-8.4c-.1-1.3.8-2.4 2.1-2.6h.2c.7 0 1.4.3 1.8.8l2.6-2.6a4.1 4.1 0 0 0-3.3-1.3c-1.3-.1-2.6.4-3.5 1.4zm7.9-2.8v15.4h3.5v-11h2.6v-2.7h-2.6v-1.5c-.1-.6.3-1.2.9-1.3h1.6v-3h-2a3.9 3.9 0 0 0-4 3.8v.3zm20.4 1.3c-1.6-.1-3.2.5-4.3 1.7-1.3 1.3-1.6 2.9-1.6 5.4 0 2.5.3 4.1 1.6 5.4 1.1 1.1 2.7 1.7 4.3 1.7 1.6.1 3.2-.5 4.3-1.7 1.3-1.3 1.6-2.9 1.6-5.4 0-2.5-.3-4.1-1.6-5.4a5.38 5.38 0 0 0-4.3-1.7zm1.7 10.5c-.9.8-2.3.8-3.2 0-.7-.7-.8-2-.8-3.4s.1-2.7.8-3.4c.9-.8 2.3-.8 3.2 0 .7.7.8 1.9.8 3.4s-.1 2.7-.8 3.4zm20.7-10.4l-2.3 8.6-2.9-8.6h-2.5l-2.8 8.7-2.3-8.6H168l4.3 14h2.9l2.9-8.8L181 39h3l4.3-14-3.8-.1zm-31.6 9.8V19.5h-3.5v15.4a3.8 3.8 0 0 0 3.6 4h2.5v-3h-1.3c-.6.1-1.1-.2-1.3-.8v-.4zM53 25.8h-3.7v-4.4h-2v13.9c0 2 1.1 3.6 3.4 3.6h1.4v-1.7h-1c-1.3 0-1.8-.7-1.8-2v-7.7h1.9l1.8-1.7z"/><path fill="#BCBBBB" d="M26 41v-9h4v13H0V32h4v9"/><path fill="#F48024" d="M23.09 33.99l.7-2.95-16.11-3.35L7 31l16.09 2.99zM9.1 23.2l15 7 1.4-3-15-7-1.4 3zm4.2-7.4L26 26.4l2.1-2.5-12.7-10.6-2.1 2.5zM21.5 8l-2.7 2 9.9 13.3 2.7-2L21.5 8zM7 38h16v-3H7v3z"/></g></svg>